<svg xmlns="http://www.w3.org/2000/svg" width="355.734" height="29.75" xmlns:v="https://vecta.io/nano"><path d="M15.422 18.266h.547l-.344 1.641a21.83 21.83 0 0 1-2.016 1.453c-.75.492-1.578.902-2.484 1.234-.906.32-1.891.484-2.953.484-1.711 0-3.18-.367-4.406-1.094-1.219-.738-2.152-1.77-2.797-3.094S0 16.023 0 14.25c0-1.719.281-3.348.844-4.891s1.344-2.898 2.344-4.078C4.195 4.105 5.383 3.184 6.75 2.516 8.113 1.84 9.594 1.5 11.187 1.5a14.17 14.17 0 0 1 2.234.188l2.234.469 1.75.531-.922 5.047-1.031.016-.469-2.688c-.023-.156-.074-.281-.156-.375-.086-.102-.187-.195-.312-.281-.512-.32-1.141-.609-1.891-.859s-1.496-.375-2.234-.375c-.906 0-1.762.273-2.562.813-.793.543-1.492 1.297-2.094 2.266-.594.969-1.062 2.105-1.406 3.406-.336 1.305-.5 2.695-.5 4.172 0 1.469.191 2.742.578 3.813.383 1.063.992 1.875 1.828 2.438s1.91.844 3.234.844a6.06 6.06 0 0 0 2.328-.453c.738-.301 1.414-.656 2.031-1.063l1.594-1.141zm5.465 4.594a3.13 3.13 0 0 1-1.375-.297 2.35 2.35 0 0 1-.937-.797 1.92 1.92 0 0 1-.328-1.078c0-.375.023-.734.078-1.078l.172-1.047 3.25-15.203c.051-.25.023-.457-.078-.625-.094-.176-.277-.316-.547-.422l-1.281-.547v-.703L25.809 0l-3.687 17.25-.297 1.656c-.086.531-.125.922-.125 1.172 0 .211.102.453.312.734.207.273.547.406 1.016.406.125 0 .379-.039.766-.125.383-.094.703-.195.953-.313h.328v.953c-.312.219-.715.418-1.203.594a9.39 9.39 0 0 1-1.5.391c-.512.094-1.008.141-1.484.141zm10.727.109a5.47 5.47 0 0 1-1.937-.359c-.637-.25-1.219-.613-1.75-1.094-.523-.488-.945-1.117-1.266-1.891-.312-.77-.469-1.676-.469-2.719 0-1.227.207-2.406.625-3.531a9.74 9.74 0 0 1 1.75-3 8.56 8.56 0 0 1 2.719-2.109c1.062-.52 2.227-.781 3.5-.781a6.38 6.38 0 0 1 1.875.297c.633.188 1.172.508 1.609.953.437.438.656 1.047.656 1.828 0 .906-.219 1.672-.656 2.297a4.93 4.93 0 0 1-1.719 1.516 8.51 8.51 0 0 1-2.297.844c-.812.168-1.609.25-2.391.25a19.06 19.06 0 0 1-.797-.016l-.828-.062-.641-.109.141-1.109.734.047h.75c1.363 0 2.426-.281 3.187-.844.77-.563 1.156-1.484 1.156-2.766 0-.508-.164-.922-.484-1.234s-.793-.469-1.406-.469c-.5 0-.992.234-1.469.703-.469.461-.902 1.063-1.297 1.813-.387.75-.695 1.57-.922 2.453-.219.875-.328 1.734-.328 2.578 0 .824.113 1.563.344 2.219s.598 1.18 1.109 1.563c.52.387 1.207.578 2.062.578.926 0 1.77-.176 2.531-.531.77-.352 1.504-.77 2.203-1.25h.437l-.297 1.438c-.648.512-1.277.953-1.891 1.328a7.81 7.81 0 0 1-1.984.859c-.711.207-1.562.312-2.562.312zm17.648-9.172l-.109 1.172c-1.062-.008-2.055.062-2.969.219s-1.664.496-2.234 1.016c-.562.523-.844 1.344-.844 2.469 0 .699.16 1.234.484 1.609.332.375.789.563 1.375.563.508 0 1.031-.113 1.562-.344.531-.238 1.004-.598 1.422-1.078l1.109-5.281.156-.766.156-1.078.078-.922c.008-.727-.187-1.273-.594-1.641-.406-.375-.953-.562-1.641-.562-.523 0-1.09.141-1.703.422s-1.211.605-1.781.969l-1.437.906h-.594l.516-2.891.25-.094a22.27 22.27 0 0 1 2.516-.719c.82-.188 1.781-.281 2.875-.281a9.03 9.03 0 0 1 1.719.172 6.2 6.2 0 0 1 1.625.563c.5.262.898.621 1.203 1.078.312.461.469 1.031.469 1.719a9.49 9.49 0 0 1-.078 1.141l-.187 1.125-.797 3.609-.25 1.109-.203 1.125a7.8 7.8 0 0 0-.062.922c0 .281.117.555.359.813.25.25.57.375.969.375.164 0 .398-.039.703-.125l.781-.281h.328v.969c-.594.375-1.246.648-1.953.813s-1.387.25-2.031.25c-.531 0-.98-.105-1.344-.313s-.656-.488-.875-.844a3.1 3.1 0 0 1-.391-1.234h-.016c-.469.617-.953 1.105-1.453 1.469a4.98 4.98 0 0 1-1.516.75c-.512.156-1.047.234-1.609.234-.793 0-1.465-.168-2.016-.5a3.42 3.42 0 0 1-1.25-1.375c-.281-.57-.422-1.211-.422-1.922 0-1.051.223-1.93.672-2.641a5.23 5.23 0 0 1 1.75-1.734c.727-.438 1.516-.742 2.359-.922.844-.188 1.656-.281 2.437-.281a6.55 6.55 0 0 1 .562.031l.703.078.687.078.531.062zm18.23 9.063c-.5 0-.945-.102-1.328-.297s-.695-.461-.922-.797a1.92 1.92 0 0 1-.328-1.078 7.17 7.17 0 0 1 .078-1.063l.219-1.078 1.031-4.531.234-1.188c.082-.414.125-.828.125-1.234 0-.551-.164-1-.484-1.344-.312-.352-.844-.531-1.594-.531-.469 0-.98.102-1.531.297-.555.188-1.047.539-1.484 1.047l-1.891 8.766a10.8 10.8 0 0 0-.125 1.531l-.016 1.297h-3.812l2.484-11.703c.062-.258.039-.473-.062-.641-.094-.164-.281-.305-.562-.422l-1.281-.5-.016-.703 5.828-1.078-.437 2.422h.031c.664-.813 1.297-1.391 1.891-1.734.594-.352 1.148-.578 1.672-.672s1.004-.141 1.453-.141c.957 0 1.77.277 2.437.828.664.543 1 1.391 1 2.547 0 .242-.016.508-.047.797a4.97 4.97 0 0 1-.141.766l-1.078 4.766-.312 1.734-.125 1.141c0 .23.094.484.281.766.195.273.539.406 1.031.406.125 0 .332-.035.625-.109a3.86 3.86 0 0 0 .812-.297h.312v.969c-.324.211-.703.398-1.141.563s-.898.293-1.375.375a8.62 8.62 0 0 1-1.453.125zm16.398-.078l-1.578-11.813c-.055-.313-.117-.539-.187-.688s-.262-.27-.562-.375l-1.5-.516v-.703l5.109-1.078 1.094 8.531.266 2.625h.047l3.75-7.891 1.625-3h2.094l1.281 8.203.312 2.875h.047l2.75-5.391c.633-1.25.992-2.344 1.078-3.281l.109-2.016v-.391h4.047l.016.469c-.219.25-.492.594-.812 1.031l-.969 1.406-.906 1.484-4.016 7.5-1.859 3.016h-2l-1.313-8.469-.281-2.359H91.5l-3.766 7.813-1.828 3.016zm28.676-8.984l-.109 1.172c-1.062-.008-2.055.062-2.969.219s-1.664.496-2.234 1.016c-.562.523-.844 1.344-.844 2.469 0 .699.16 1.234.484 1.609.332.375.789.563 1.375.563.508 0 1.031-.113 1.562-.344.531-.238 1.004-.598 1.422-1.078l1.109-5.281.156-.766.156-1.078.078-.922c.008-.727-.187-1.273-.594-1.641-.406-.375-.953-.563-1.641-.563-.523 0-1.09.141-1.703.422s-1.211.605-1.781.969l-1.437.906h-.594l.516-2.891.25-.094a22.27 22.27 0 0 1 2.516-.719c.82-.188 1.781-.281 2.875-.281a9.03 9.03 0 0 1 1.719.172 6.2 6.2 0 0 1 1.625.563c.5.262.898.621 1.203 1.078.312.461.469 1.031.469 1.719a9.49 9.49 0 0 1-.078 1.141l-.187 1.125-.797 3.609-.25 1.109-.203 1.125a7.8 7.8 0 0 0-.062.922c0 .281.117.555.359.813.25.25.57.375.969.375.164 0 .398-.039.703-.125l.781-.281h.328v.969c-.594.375-1.246.648-1.953.813s-1.387.25-2.031.25c-.531 0-.98-.105-1.344-.313s-.656-.488-.875-.844a3.1 3.1 0 0 1-.391-1.234h-.016c-.469.617-.953 1.105-1.453 1.469a4.98 4.98 0 0 1-1.516.75c-.512.156-1.047.234-1.609.234-.793 0-1.465-.168-2.016-.5a3.42 3.42 0 0 1-1.25-1.375c-.281-.57-.422-1.211-.422-1.922 0-1.051.223-1.93.672-2.641a5.23 5.23 0 0 1 1.75-1.734c.727-.438 1.516-.742 2.359-.922.844-.188 1.656-.281 2.437-.281a6.55 6.55 0 0 1 .562.031l.703.078.687.078.531.062zm10.48 9.125c-.98 0-1.797-.223-2.453-.656-.648-.438-.969-1.023-.969-1.766 0-.195.02-.445.062-.75l.172-.953.172-.875 1.734-8.406h-2.281V8.422c.602-.07 1.117-.176 1.547-.313s.773-.352 1.047-.656c.281-.313.492-.773.641-1.391l.484-1.844 3.094-.484-2.75 13.359-.141.766-.156.891c-.043.293-.062.531-.062.719 0 .336.109.609.328.828a2.09 2.09 0 0 0 .812.484c.32.105.613.156.875.156.187 0 .422-.023.703-.078l.844-.188.672-.203h.328v.953c-.23.148-.602.34-1.109.578a11.02 11.02 0 0 1-1.719.641c-.637.188-1.262.281-1.875.281zm1.828-13.406L125.203 8h4.891l-.344 1.516zm10.238 13.453a5.47 5.47 0 0 1-1.937-.359c-.637-.25-1.219-.613-1.75-1.094-.523-.488-.945-1.117-1.266-1.891-.312-.77-.469-1.676-.469-2.719 0-1.227.207-2.406.625-3.531a9.74 9.74 0 0 1 1.75-3 8.56 8.56 0 0 1 2.719-2.109c1.063-.52 2.227-.781 3.5-.781a6.38 6.38 0 0 1 1.875.297c.633.188 1.172.508 1.609.953.438.438.656 1.047.656 1.828 0 .906-.219 1.672-.656 2.297a4.93 4.93 0 0 1-1.719 1.516 8.51 8.51 0 0 1-2.297.844c-.812.168-1.609.25-2.391.25a19.06 19.06 0 0 1-.797-.016l-.828-.062-.641-.109.141-1.109.734.047h.75c1.363 0 2.426-.281 3.187-.844.77-.563 1.156-1.484 1.156-2.766 0-.508-.164-.922-.484-1.234s-.793-.469-1.406-.469c-.5 0-.992.234-1.469.703-.469.461-.902 1.063-1.297 1.813-.387.75-.695 1.57-.922 2.453-.219.875-.328 1.734-.328 2.578 0 .824.113 1.563.344 2.219s.598 1.18 1.109 1.563c.52.387 1.207.578 2.063.578.926 0 1.77-.176 2.531-.531.77-.352 1.504-.77 2.203-1.25h.438l-.297 1.438c-.648.512-1.277.953-1.891 1.328a7.81 7.81 0 0 1-1.984.859c-.711.207-1.563.312-2.563.312zm12.359-.313h-3.813l2.109-10.281.094-.656.078-.656c.008-.27-.027-.504-.109-.703s-.262-.352-.531-.469l-1.281-.516-.016-.688 5.781-1.078-.547 3.297h.016l1.453-1.641c.5-.52 1.039-.945 1.625-1.281s1.207-.5 1.875-.5c.551 0 .969.047 1.25.141a6.39 6.39 0 0 1 .906.359l-.75 4.141h-1.266l-.297-1.156c-.043-.187-.227-.336-.547-.453-.312-.125-.605-.187-.875-.187a4.28 4.28 0 0 0-1.187.172c-.387.105-.762.277-1.125.516s-.742.57-1.125.984l-1.594 7.813c-.043.242-.074.547-.094.922l-.031 1.078v.844zm22.629-18.125c-.387 0-.746-.094-1.078-.281-.324-.188-.578-.441-.766-.766s-.281-.691-.281-1.109a2.06 2.06 0 0 1 .609-1.516c.414-.406.922-.609 1.516-.609.613 0 1.133.203 1.563.609a1.92 1.92 0 0 1 .656 1.484c0 .637-.219 1.164-.656 1.578a2.22 2.22 0 0 1-1.563.609zm-2.328 18.328c-.523 0-.977-.102-1.359-.297s-.695-.461-.922-.797a1.92 1.92 0 0 1-.328-1.078 7 7 0 0 1 .078-1.094l.203-1.047 1.594-7.531c.051-.258.023-.473-.078-.641-.094-.176-.273-.316-.531-.422l-1.328-.563-.016-.687 6.016-1.078-1.969 9.281-.187.906-.172.922-.125.813-.031.531c0 .211.098.453.297.734.207.273.551.406 1.031.406.125 0 .375-.039.75-.125.375-.094.68-.195.922-.313h.328v.953c-.324.219-.719.418-1.188.594-.461.168-.949.301-1.469.391s-1.027.141-1.516.141zm9.793.203c-1.074 0-2.047-.109-2.922-.328-.875-.207-1.648-.438-2.312-.688l.75-4.156h1.172l.188 1.672c.031.242.125.445.281.609a2.21 2.21 0 0 0 .5.391c.312.199.742.402 1.297.609.563.211 1.141.313 1.734.313.57 0 1.082-.082 1.531-.25.445-.176.797-.441 1.047-.797.258-.352.391-.801.391-1.344 0-.582-.203-1.016-.609-1.297-.406-.289-.898-.555-1.469-.797l-1.203-.469-1.094-.484a5.06 5.06 0 0 1-1.813-1.375c-.5-.602-.75-1.375-.75-2.313 0-.801.18-1.504.547-2.109a4.9 4.9 0 0 1 1.484-1.516 7.22 7.22 0 0 1 2.078-.937c.77-.207 1.555-.312 2.359-.312.844 0 1.672.07 2.484.203.813.125 1.535.277 2.172.453l-.75 4.172h-1.219l-.109-1.656a.94.94 0 0 0-.234-.578 2.11 2.11 0 0 0-.531-.422c-.305-.176-.664-.328-1.078-.453s-.859-.187-1.328-.187a3.23 3.23 0 0 0-1.828.563c-.563.367-.844.938-.844 1.719 0 .574.176 1.027.531 1.359.352.324.742.578 1.172.766l1.141.516 1 .422c.937.406 1.691.875 2.266 1.406s.859 1.277.859 2.234c0 .969-.211 1.781-.625 2.438a4.6 4.6 0 0 1-1.656 1.547c-.688.387-1.438.664-2.25.828-.805.164-1.59.25-2.359.25zm28.684-.203c-.5 0-.945-.102-1.328-.297s-.695-.461-.922-.797a1.92 1.92 0 0 1-.328-1.078c0-.344.023-.695.078-1.063l.219-1.078L205 14.016l.234-1.188c.082-.414.125-.828.125-1.234 0-.551-.164-1-.484-1.344-.312-.352-.844-.531-1.594-.531-.469 0-.98.102-1.531.297-.555.188-1.047.539-1.484 1.047l-1.891 8.766a10.78 10.78 0 0 0-.125 1.531l-.016 1.297h-3.812l2.484-11.703c.063-.258.039-.473-.063-.641-.094-.164-.281-.305-.563-.422l-1.281-.5-.016-.703 5.828-1.078-.438 2.422h.031c.664-.813 1.297-1.391 1.891-1.734.594-.352 1.148-.578 1.672-.672s1.004-.141 1.453-.141c.957 0 1.77.277 2.437.828.664.543 1 1.391 1 2.547 0 .242-.016.508-.047.797-.031.281-.078.539-.141.766l-1.078 4.766-.313 1.734-.125 1.141c0 .23.094.484.281.766.195.273.539.406 1.031.406.125 0 .332-.035.625-.109a3.86 3.86 0 0 0 .812-.297h.313v.969c-.324.211-.703.398-1.141.563s-.898.293-1.375.375a8.62 8.62 0 0 1-1.453.125zm11.02.188c-1.211 0-2.262-.246-3.156-.734-.887-.488-1.574-1.191-2.062-2.109-.48-.914-.719-2.004-.719-3.266 0-1.238.191-2.422.578-3.547a9.71 9.71 0 0 1 1.656-3.031 8.23 8.23 0 0 1 2.562-2.094c.977-.52 2.063-.781 3.25-.781 1.27 0 2.348.262 3.234.781a5.16 5.16 0 0 1 2.016 2.156c.457.918.688 1.996.688 3.234a10.27 10.27 0 0 1-.609 3.516c-.398 1.117-.953 2.117-1.672 3-.711.887-1.555 1.59-2.531 2.109-.98.508-2.059.766-3.234.766zm.203-1.406c.594 0 1.113-.191 1.562-.578.457-.395.852-.91 1.188-1.547.344-.633.625-1.328.844-2.078.219-.758.379-1.504.484-2.234s.156-1.363.156-1.906a11.2 11.2 0 0 0-.188-2.031c-.117-.676-.359-1.242-.734-1.703-.367-.457-.914-.688-1.641-.688-.617 0-1.164.211-1.641.625-.469.406-.871.945-1.203 1.609-.336.656-.605 1.375-.813 2.156-.199.773-.352 1.527-.453 2.266-.105.73-.156 1.367-.156 1.906 0 .625.063 1.266.188 1.922.133.648.383 1.188.75 1.625.375.438.926.656 1.656.656zm13.703 1.281c-.98 0-1.797-.223-2.453-.656-.648-.438-.969-1.023-.969-1.766 0-.195.019-.445.063-.75l.172-.953.172-.875 1.734-8.406h-2.281V8.422c.602-.07 1.117-.176 1.547-.313s.773-.352 1.047-.656c.281-.313.492-.773.641-1.391l.484-1.844 3.094-.484-2.75 13.359-.141.766-.156.891a5.1 5.1 0 0 0-.063.719c0 .336.109.609.328.828a2.09 2.09 0 0 0 .813.484c.32.105.613.156.875.156.187 0 .422-.023.703-.078l.844-.188.672-.203h.328v.953c-.23.148-.602.34-1.109.578-.5.242-1.074.453-1.719.641-.637.188-1.262.281-1.875.281zm1.828-13.406L233.332 8h4.891l-.344 1.516zm21.918 4.281l-.109 1.172c-1.063-.008-2.055.062-2.969.219s-1.664.496-2.234 1.016c-.562.523-.844 1.344-.844 2.469 0 .699.16 1.234.484 1.609.332.375.789.563 1.375.563.508 0 1.031-.113 1.563-.344.531-.238 1.004-.598 1.422-1.078l1.109-5.281.156-.766.156-1.078.078-.922c.008-.727-.187-1.273-.594-1.641-.406-.375-.953-.563-1.641-.563-.523 0-1.09.141-1.703.422s-1.211.605-1.781.969l-1.437.906h-.594l.516-2.891.25-.094a22.27 22.27 0 0 1 2.516-.719c.82-.188 1.781-.281 2.875-.281.563 0 1.133.059 1.719.172a6.2 6.2 0 0 1 1.625.563c.5.262.898.621 1.203 1.078.312.461.469 1.031.469 1.719 0 .344-.027.727-.078 1.141l-.188 1.125-.797 3.609-.25 1.109-.203 1.125a7.81 7.81 0 0 0-.063.922c0 .281.117.555.359.813.25.25.57.375.969.375.164 0 .398-.039.703-.125l.781-.281h.328v.969c-.594.375-1.246.648-1.953.813s-1.387.25-2.031.25c-.531 0-.98-.105-1.344-.313s-.656-.488-.875-.844a3.1 3.1 0 0 1-.391-1.234h-.016c-.469.617-.953 1.105-1.453 1.469a4.98 4.98 0 0 1-1.516.75c-.512.156-1.047.234-1.609.234-.793 0-1.465-.168-2.016-.5a3.42 3.42 0 0 1-1.25-1.375c-.281-.57-.422-1.211-.422-1.922 0-1.051.223-1.93.672-2.641a5.23 5.23 0 0 1 1.75-1.734c.727-.438 1.516-.742 2.359-.922.844-.188 1.656-.281 2.438-.281a6.55 6.55 0 0 1 .562.031l.703.078.687.078.531.062zm17.234 9.063a3.13 3.13 0 0 1-1.375-.297 2.35 2.35 0 0 1-.937-.797 1.92 1.92 0 0 1-.328-1.078c0-.375.023-.734.078-1.078l.172-1.047 3.25-15.203c.051-.25.023-.457-.078-.625-.094-.176-.277-.316-.547-.422l-1.281-.547v-.703L277.078 0l-3.688 17.25-.297 1.656c-.086.531-.125.922-.125 1.172 0 .211.102.453.312.734.207.273.547.406 1.016.406.125 0 .379-.039.766-.125.383-.094.703-.195.953-.313h.328v.953c-.313.219-.715.418-1.203.594a9.39 9.39 0 0 1-1.5.391c-.512.094-1.008.141-1.484.141zm9.648.063c-.98 0-1.805-.266-2.469-.797-.668-.539-1-1.398-1-2.578l.031-.75a6.79 6.79 0 0 1 .141-.797l1.5-7.047c.063-.25.047-.457-.047-.625-.086-.176-.266-.32-.547-.438l-1.266-.5-.016-.703 5.969-1.078-1.969 9.141-.187 1-.094.891c-.012.656.141 1.168.453 1.531s.848.547 1.609.547c.469 0 .977-.094 1.531-.281.562-.195 1.066-.547 1.516-1.047l1.844-8.688c.082-.445.125-.945.125-1.5l.016-1.328h3.797l-1.969 9.313-.328 1.672c-.094.531-.141.93-.141 1.188 0 .211.098.461.297.75.207.293.551.438 1.031.438.125 0 .336-.035.641-.109.313-.07.594-.172.844-.297h.313v.969c-.492.324-1.078.586-1.766.781-.68.184-1.418.281-2.219.281-.512 0-.961-.113-1.344-.328a2.36 2.36 0 0 1-.891-.906c-.199-.375-.313-.785-.344-1.234h-.031c-.688.813-1.34 1.398-1.953 1.75-.605.355-1.168.57-1.687.656s-.984.125-1.391.125zm13.086-.063a9.45 9.45 0 0 1-.703-.031 4.93 4.93 0 0 1-.703-.109l.641-3.359h.453c.238.062.477.109.719.141l.625.031a2.55 2.55 0 0 0 1.109-.266c.375-.187.75-.523 1.125-1.016.25-.176.539-.488.875-.938l1.141-1.547-1.969-4.797c-.137-.301-.266-.535-.391-.703s-.324-.301-.594-.406l-.719-.25-.687-.219v-.703l4.516-1.078 1.641 4.266.469 1.516h.016l.922-1.422.75-1.094.625-.875.594-.766c.477-.625.93-1.039 1.359-1.25.426-.219.93-.328 1.516-.328l.687.031a4.34 4.34 0 0 1 .734.094l-.672 3.406h-.453a3.96 3.96 0 0 0-.719-.141 4.97 4.97 0 0 0-.625-.047c-.344 0-.703.09-1.078.266-.367.168-.75.512-1.156 1.031-.199.125-.465.398-.797.813l-1.047 1.438 2.016 4.953a5.65 5.65 0 0 0 .344.734c.156.273.348.508.578.703.238.188.547.281.922.281.156 0 .375-.035.656-.109.289-.082.555-.18.797-.297h.344v.969a6.37 6.37 0 0 1-1.156.563c-.438.168-.902.293-1.391.375a7.5 7.5 0 0 1-1.438.141c-.793 0-1.371-.184-1.734-.547-.355-.363-.664-.906-.922-1.625l-.859-2.297-.469-1.422h-.016l-.719 1.141-.641.969-.609.844-.547.734-.484.641c-.469.625-.918 1.043-1.344 1.25-.418.207-.93.313-1.531.313zm19.461.063c-.98 0-1.805-.266-2.469-.797-.668-.539-1-1.398-1-2.578l.031-.75a6.79 6.79 0 0 1 .141-.797l1.5-7.047c.063-.25.047-.457-.047-.625-.086-.176-.266-.32-.547-.438l-1.266-.5-.016-.703 5.969-1.078-1.969 9.141-.188 1-.094.891c-.012.656.141 1.168.453 1.531s.848.547 1.609.547c.469 0 .977-.094 1.531-.281.563-.195 1.066-.547 1.516-1.047l1.844-8.688c.082-.445.125-.945.125-1.5l.016-1.328h3.797l-1.969 9.313-.328 1.672c-.094.531-.141.93-.141 1.188 0 .211.098.461.297.75.207.293.551.438 1.031.438.125 0 .336-.035.641-.109.312-.07.594-.172.844-.297h.312v.969c-.492.324-1.078.586-1.766.781-.68.184-1.418.281-2.219.281-.512 0-.961-.113-1.344-.328a2.36 2.36 0 0 1-.891-.906c-.199-.375-.312-.785-.344-1.234h-.031c-.687.813-1.34 1.398-1.953 1.75-.605.355-1.168.57-1.688.656s-.984.125-1.391.125zm17.023-.266h-3.812l2.109-10.281.094-.656.078-.656c.008-.27-.027-.504-.109-.703s-.262-.352-.531-.469l-1.281-.516-.016-.688 5.781-1.078-.547 3.297h.016l1.453-1.641c.5-.52 1.039-.945 1.625-1.281s1.207-.5 1.875-.5c.551 0 .969.047 1.25.141a6.39 6.39 0 0 1 .906.359l-.75 4.141h-1.266l-.297-1.156c-.043-.187-.227-.336-.547-.453-.312-.125-.605-.187-.875-.187a4.28 4.28 0 0 0-1.187.172c-.387.105-.762.277-1.125.516s-.742.57-1.125.984l-1.594 7.813c-.043.242-.074.547-.094.922l-.031 1.078v.844zm12.719 7.094c-.762 0-1.418-.059-1.969-.172l-1.453-.391.922-3.031h.391l1.203.438c.457.156.926.273 1.406.359a7.18 7.18 0 0 0 1.344.141c.613-.023 1.117-.086 1.516-.188.406-.094.738-.277 1-.547.113-.125.234-.391.359-.797l.391-1.422.359-1.594.484-2.438c-.68.813-1.328 1.402-1.953 1.766-.617.355-1.195.574-1.734.656a8.99 8.99 0 0 1-1.422.125c-.969 0-1.789-.266-2.453-.797-.668-.539-1-1.395-1-2.563 0-.25.016-.508.047-.781a5.57 5.57 0 0 1 .141-.781l1.453-6.75c.063-.258.047-.477-.047-.656s-.277-.32-.547-.438l-1.297-.5-.016-.703 5.984-1.078-1.922 8.844-.203 1.047c-.055.344-.078.68-.078 1 0 .594.156 1.074.469 1.438.312.355.836.531 1.578.531.469 0 1-.102 1.594-.313.594-.219 1.113-.582 1.563-1.094l1.641-8.375a9.13 9.13 0 0 0 .141-1.484L352 7.875h3.734l-2.625 13.938c-.219 1.145-.57 2.141-1.047 2.984-.469.852-1.078 1.625-1.828 2.313-.949.852-1.898 1.504-2.844 1.953-.949.457-2.047.688-3.297.688zm0 0" fill="#66cdee"/></svg>